<mxfile host="app.diagrams.net" agent="Mozilla/5.0 (Windows NT 10.0; Win64; x64) AppleWebKit/537.36 (KHTML, like Gecko) Chrome/137.0.0.0 Safari/537.36 Edg/137.0.0.0" version="27.1.3">
  <diagram name="Page-1" id="h76FVHh6w9sBSySroBee">
    <mxGraphModel grid="1" page="1" gridSize="10" guides="1" tooltips="1" connect="1" arrows="1" fold="1" pageScale="1" pageWidth="850" pageHeight="1100" math="0" shadow="0">
      <root>
        <mxCell id="0" />
        <mxCell id="1" parent="0" />
        <mxCell id="EtRuiWauQV13i_2vU5DI-22" style="edgeStyle=orthogonalEdgeStyle;rounded=0;orthogonalLoop=1;jettySize=auto;html=1;" edge="1" parent="1" source="EtRuiWauQV13i_2vU5DI-8">
          <mxGeometry relative="1" as="geometry">
            <mxPoint x="430" y="280" as="targetPoint" />
          </mxGeometry>
        </mxCell>
        <mxCell id="EtRuiWauQV13i_2vU5DI-37" value="Case 2" style="edgeLabel;html=1;align=center;verticalAlign=middle;resizable=0;points=[];" connectable="0" vertex="1" parent="EtRuiWauQV13i_2vU5DI-22">
          <mxGeometry x="-0.8011" y="-3" relative="1" as="geometry">
            <mxPoint as="offset" />
          </mxGeometry>
        </mxCell>
        <mxCell id="EtRuiWauQV13i_2vU5DI-8" value="Tôi tham gia giao thông với nồng độ cồn thấp hơn 50miligam/l máu thì xử phạt thế nào" style="rounded=1;whiteSpace=wrap;html=1;fillColor=#dae8fc;gradientColor=#7ea6e0;strokeColor=#6c8ebf;" vertex="1" parent="1">
          <mxGeometry x="480" y="90" width="150" height="70" as="geometry" />
        </mxCell>
        <mxCell id="EtRuiWauQV13i_2vU5DI-21" style="edgeStyle=orthogonalEdgeStyle;rounded=0;orthogonalLoop=1;jettySize=auto;html=1;" edge="1" parent="1" source="EtRuiWauQV13i_2vU5DI-9">
          <mxGeometry relative="1" as="geometry">
            <mxPoint x="430" y="280" as="targetPoint" />
          </mxGeometry>
        </mxCell>
        <mxCell id="EtRuiWauQV13i_2vU5DI-30" value="Case 1" style="edgeLabel;html=1;align=center;verticalAlign=middle;resizable=0;points=[];" connectable="0" vertex="1" parent="EtRuiWauQV13i_2vU5DI-21">
          <mxGeometry x="-0.5066" y="-1" relative="1" as="geometry">
            <mxPoint as="offset" />
          </mxGeometry>
        </mxCell>
        <mxCell id="EtRuiWauQV13i_2vU5DI-9" value="Tại sao cần có luật giao thông?" style="rounded=1;whiteSpace=wrap;html=1;fillColor=#f8cecc;gradientColor=#ea6b66;strokeColor=#b85450;" vertex="1" parent="1">
          <mxGeometry x="480" y="190" width="120" height="60" as="geometry" />
        </mxCell>
        <mxCell id="EtRuiWauQV13i_2vU5DI-27" style="edgeStyle=orthogonalEdgeStyle;rounded=0;orthogonalLoop=1;jettySize=auto;html=1;" edge="1" parent="1" source="EtRuiWauQV13i_2vU5DI-10">
          <mxGeometry relative="1" as="geometry">
            <mxPoint x="430" y="280" as="targetPoint" />
          </mxGeometry>
        </mxCell>
        <mxCell id="EtRuiWauQV13i_2vU5DI-38" value="Case 3" style="edgeLabel;html=1;align=center;verticalAlign=middle;resizable=0;points=[];" connectable="0" vertex="1" parent="EtRuiWauQV13i_2vU5DI-27">
          <mxGeometry x="-0.8599" y="1" relative="1" as="geometry">
            <mxPoint as="offset" />
          </mxGeometry>
        </mxCell>
        <mxCell id="EtRuiWauQV13i_2vU5DI-10" value="Tôi không đội mũ bảo hiểm khi tham gia giao thông, sau đó gây ra tai nạn thì bị xử phạt thế nào" style="rounded=1;whiteSpace=wrap;html=1;fillColor=#dae8fc;strokeColor=#6c8ebf;gradientColor=#7ea6e0;" vertex="1" parent="1">
          <mxGeometry x="480" y="-30" width="150" height="75" as="geometry" />
        </mxCell>
        <mxCell id="EtRuiWauQV13i_2vU5DI-40" style="edgeStyle=orthogonalEdgeStyle;rounded=0;orthogonalLoop=1;jettySize=auto;html=1;entryX=0.5;entryY=0;entryDx=0;entryDy=0;" edge="1" parent="1" source="EtRuiWauQV13i_2vU5DI-11" target="EtRuiWauQV13i_2vU5DI-39">
          <mxGeometry relative="1" as="geometry" />
        </mxCell>
        <mxCell id="EtRuiWauQV13i_2vU5DI-11" value="OpenAIAgent" style="rounded=1;whiteSpace=wrap;html=1;fillColor=#fa6800;strokeColor=#C73500;fontColor=#000000;" vertex="1" parent="1">
          <mxGeometry x="280" y="250" width="120" height="60" as="geometry" />
        </mxCell>
        <mxCell id="EtRuiWauQV13i_2vU5DI-13" style="edgeStyle=orthogonalEdgeStyle;rounded=0;orthogonalLoop=1;jettySize=auto;html=1;entryX=1;entryY=0.5;entryDx=0;entryDy=0;" edge="1" parent="1" source="EtRuiWauQV13i_2vU5DI-12" target="EtRuiWauQV13i_2vU5DI-11">
          <mxGeometry relative="1" as="geometry" />
        </mxCell>
        <mxCell id="EtRuiWauQV13i_2vU5DI-14" value="Request" style="edgeLabel;html=1;align=center;verticalAlign=middle;resizable=0;points=[];" connectable="0" vertex="1" parent="EtRuiWauQV13i_2vU5DI-13">
          <mxGeometry x="-0.0838" y="-1" relative="1" as="geometry">
            <mxPoint as="offset" />
          </mxGeometry>
        </mxCell>
        <mxCell id="EtRuiWauQV13i_2vU5DI-12" value="EXPO APPLICATION SERVER" style="rounded=1;whiteSpace=wrap;html=1;fillColor=#d0cee2;strokeColor=#56517e;" vertex="1" parent="1">
          <mxGeometry x="750" y="250" width="120" height="60" as="geometry" />
        </mxCell>
        <mxCell id="EtRuiWauQV13i_2vU5DI-32" value="Think 1: Tôi đã biết lí do vì sao cân phải có luật giao thông&lt;br&gt;Action 1: Trả lời ngay mà không cần dùng tool" style="rounded=1;whiteSpace=wrap;html=1;fillColor=#f5f5f5;fontColor=#333333;strokeColor=#666666;" vertex="1" parent="1">
          <mxGeometry x="455" y="350" width="170" height="75" as="geometry" />
        </mxCell>
        <mxCell id="EtRuiWauQV13i_2vU5DI-35" value="Think 2: Có vẻ như tôi không biết, dùng tool thôi&lt;br&gt;Action 2: Sử dụng tool single-question-query-engine" style="rounded=1;whiteSpace=wrap;html=1;fillColor=#f5f5f5;fontColor=#333333;strokeColor=#666666;align=center;" vertex="1" parent="1">
          <mxGeometry x="280" y="350" width="160" height="75" as="geometry" />
        </mxCell>
        <mxCell id="EtRuiWauQV13i_2vU5DI-39" value="Think 3: Có vẻ như tôi không biết, dùng tool thôi&lt;div&gt;Action 3: Sử dụng tool sub-question-query-engine&lt;/div&gt;" style="rounded=1;whiteSpace=wrap;html=1;fillColor=#f5f5f5;fontColor=#333333;strokeColor=#666666;" vertex="1" parent="1">
          <mxGeometry x="90" y="350" width="160" height="75" as="geometry" />
        </mxCell>
        <mxCell id="EtRuiWauQV13i_2vU5DI-65" style="edgeStyle=orthogonalEdgeStyle;rounded=0;orthogonalLoop=1;jettySize=auto;html=1;entryX=0;entryY=0.25;entryDx=0;entryDy=0;" edge="1" parent="1" source="EtRuiWauQV13i_2vU5DI-43" target="EtRuiWauQV13i_2vU5DI-45">
          <mxGeometry relative="1" as="geometry">
            <Array as="points">
              <mxPoint x="10" y="87" />
              <mxPoint x="10" y="505" />
            </Array>
          </mxGeometry>
        </mxCell>
        <mxCell id="EtRuiWauQV13i_2vU5DI-66" style="edgeStyle=orthogonalEdgeStyle;rounded=0;orthogonalLoop=1;jettySize=auto;html=1;entryX=0;entryY=0.5;entryDx=0;entryDy=0;" edge="1" parent="1" source="EtRuiWauQV13i_2vU5DI-43" target="EtRuiWauQV13i_2vU5DI-46">
          <mxGeometry relative="1" as="geometry">
            <Array as="points">
              <mxPoint x="10" y="87" />
              <mxPoint x="10" y="620" />
            </Array>
          </mxGeometry>
        </mxCell>
        <mxCell id="EtRuiWauQV13i_2vU5DI-43" value="&lt;b&gt;&lt;font style=&quot;font-size: 14px;&quot;&gt;Single-question-query-engine&lt;/font&gt;&lt;/b&gt;: RAG với khả năng trả lời những câu hỏi đơn giản&lt;div&gt;&lt;font style=&quot;font-size: 14px;&quot;&gt;&lt;b&gt;Sub-question-query-engine:&lt;/b&gt;&lt;/font&gt; RAG với khả năng trả lời những câu hỏi phức tạp, nhiều ý&lt;/div&gt;" style="rounded=0;whiteSpace=wrap;html=1;fillColor=#fad7ac;strokeColor=#b46504;align=left;" vertex="1" parent="1">
          <mxGeometry x="40" y="100" width="200" height="130" as="geometry" />
        </mxCell>
        <mxCell id="EtRuiWauQV13i_2vU5DI-48" style="edgeStyle=orthogonalEdgeStyle;rounded=0;orthogonalLoop=1;jettySize=auto;html=1;entryX=0;entryY=0.5;entryDx=0;entryDy=0;" edge="1" parent="1" source="EtRuiWauQV13i_2vU5DI-45" target="EtRuiWauQV13i_2vU5DI-47">
          <mxGeometry relative="1" as="geometry" />
        </mxCell>
        <mxCell id="EtRuiWauQV13i_2vU5DI-45" value="Qdrant Vector Database" style="rounded=1;whiteSpace=wrap;html=1;fillColor=#e1d5e7;strokeColor=#9673a6;" vertex="1" parent="1">
          <mxGeometry x="30" y="490" width="120" height="60" as="geometry" />
        </mxCell>
        <mxCell id="EtRuiWauQV13i_2vU5DI-49" style="edgeStyle=orthogonalEdgeStyle;rounded=0;orthogonalLoop=1;jettySize=auto;html=1;entryX=0;entryY=0.5;entryDx=0;entryDy=0;" edge="1" parent="1" source="EtRuiWauQV13i_2vU5DI-46" target="EtRuiWauQV13i_2vU5DI-47">
          <mxGeometry relative="1" as="geometry" />
        </mxCell>
        <mxCell id="EtRuiWauQV13i_2vU5DI-46" value="TF-IDF Index&lt;br&gt;(Elasticsearch)" style="rounded=1;whiteSpace=wrap;html=1;fillColor=#e1d5e7;strokeColor=#9673a6;" vertex="1" parent="1">
          <mxGeometry x="30" y="590" width="120" height="60" as="geometry" />
        </mxCell>
        <mxCell id="EtRuiWauQV13i_2vU5DI-53" style="edgeStyle=orthogonalEdgeStyle;rounded=0;orthogonalLoop=1;jettySize=auto;html=1;entryX=0;entryY=0.5;entryDx=0;entryDy=0;" edge="1" parent="1" source="EtRuiWauQV13i_2vU5DI-47" target="EtRuiWauQV13i_2vU5DI-50">
          <mxGeometry relative="1" as="geometry" />
        </mxCell>
        <mxCell id="EtRuiWauQV13i_2vU5DI-47" value="Claude Fusion Rules" style="rounded=1;whiteSpace=wrap;html=1;fillColor=#dae8fc;strokeColor=#6c8ebf;" vertex="1" parent="1">
          <mxGeometry x="220" y="540" width="120" height="60" as="geometry" />
        </mxCell>
        <mxCell id="EtRuiWauQV13i_2vU5DI-54" style="edgeStyle=orthogonalEdgeStyle;rounded=0;orthogonalLoop=1;jettySize=auto;html=1;" edge="1" parent="1" source="EtRuiWauQV13i_2vU5DI-50" target="EtRuiWauQV13i_2vU5DI-51">
          <mxGeometry relative="1" as="geometry" />
        </mxCell>
        <mxCell id="EtRuiWauQV13i_2vU5DI-50" value="GPT Reranker&lt;br&gt;(gpt-4o-mini)" style="rounded=1;whiteSpace=wrap;html=1;fillColor=#dae8fc;strokeColor=#6c8ebf;" vertex="1" parent="1">
          <mxGeometry x="400" y="540" width="120" height="60" as="geometry" />
        </mxCell>
        <mxCell id="EtRuiWauQV13i_2vU5DI-61" style="edgeStyle=orthogonalEdgeStyle;rounded=0;orthogonalLoop=1;jettySize=auto;html=1;" edge="1" parent="1" source="EtRuiWauQV13i_2vU5DI-51">
          <mxGeometry relative="1" as="geometry">
            <mxPoint x="760" y="570" as="targetPoint" />
          </mxGeometry>
        </mxCell>
        <mxCell id="EtRuiWauQV13i_2vU5DI-51" value="Compact and Refine&amp;nbsp;" style="rounded=1;whiteSpace=wrap;html=1;fillColor=#dae8fc;strokeColor=#6c8ebf;" vertex="1" parent="1">
          <mxGeometry x="580" y="540" width="120" height="60" as="geometry" />
        </mxCell>
        <mxCell id="EtRuiWauQV13i_2vU5DI-63" style="edgeStyle=orthogonalEdgeStyle;rounded=0;orthogonalLoop=1;jettySize=auto;html=1;" edge="1" parent="1" source="EtRuiWauQV13i_2vU5DI-60">
          <mxGeometry relative="1" as="geometry">
            <mxPoint x="815" y="320" as="targetPoint" />
          </mxGeometry>
        </mxCell>
        <mxCell id="EtRuiWauQV13i_2vU5DI-60" value="Final Response" style="ellipse;whiteSpace=wrap;html=1;fillColor=#bac8d3;strokeColor=#23445d;" vertex="1" parent="1">
          <mxGeometry x="760" y="535" width="110" height="70" as="geometry" />
        </mxCell>
        <mxCell id="EtRuiWauQV13i_2vU5DI-99" value="" style="rounded=1;whiteSpace=wrap;html=1;fillColor=#e1d5e7;strokeColor=#9673a6;" vertex="1" parent="1">
          <mxGeometry x="-990" y="508" width="120" height="60" as="geometry" />
        </mxCell>
        <mxCell id="EtRuiWauQV13i_2vU5DI-100" value="" style="rounded=1;whiteSpace=wrap;html=1;fillColor=#e1d5e7;strokeColor=#9673a6;" vertex="1" parent="1">
          <mxGeometry x="-980" y="518" width="120" height="60" as="geometry" />
        </mxCell>
        <mxCell id="itmrIUGYTnlYiGPizFp7-15" style="edgeStyle=orthogonalEdgeStyle;rounded=0;orthogonalLoop=1;jettySize=auto;html=1;entryX=0;entryY=0.5;entryDx=0;entryDy=0;" edge="1" parent="1" source="EtRuiWauQV13i_2vU5DI-101" target="EtRuiWauQV13i_2vU5DI-103">
          <mxGeometry relative="1" as="geometry">
            <Array as="points">
              <mxPoint x="-780" y="558" />
              <mxPoint x="-780" y="423" />
            </Array>
          </mxGeometry>
        </mxCell>
        <mxCell id="itmrIUGYTnlYiGPizFp7-16" style="edgeStyle=orthogonalEdgeStyle;rounded=0;orthogonalLoop=1;jettySize=auto;html=1;entryX=0;entryY=0.5;entryDx=0;entryDy=0;" edge="1" parent="1" source="EtRuiWauQV13i_2vU5DI-101" target="EtRuiWauQV13i_2vU5DI-106">
          <mxGeometry relative="1" as="geometry">
            <Array as="points">
              <mxPoint x="-780" y="558" />
              <mxPoint x="-780" y="508" />
            </Array>
          </mxGeometry>
        </mxCell>
        <mxCell id="itmrIUGYTnlYiGPizFp7-17" style="edgeStyle=orthogonalEdgeStyle;rounded=0;orthogonalLoop=1;jettySize=auto;html=1;entryX=0;entryY=0.5;entryDx=0;entryDy=0;" edge="1" parent="1" source="EtRuiWauQV13i_2vU5DI-101" target="EtRuiWauQV13i_2vU5DI-107">
          <mxGeometry relative="1" as="geometry">
            <Array as="points">
              <mxPoint x="-780" y="558" />
              <mxPoint x="-780" y="593" />
            </Array>
          </mxGeometry>
        </mxCell>
        <mxCell id="itmrIUGYTnlYiGPizFp7-18" style="edgeStyle=orthogonalEdgeStyle;rounded=0;orthogonalLoop=1;jettySize=auto;html=1;entryX=0;entryY=0.5;entryDx=0;entryDy=0;" edge="1" parent="1" source="itmrIUGYTnlYiGPizFp7-22" target="EtRuiWauQV13i_2vU5DI-112">
          <mxGeometry relative="1" as="geometry">
            <Array as="points">
              <mxPoint x="-780" y="558" />
              <mxPoint x="-780" y="678" />
            </Array>
          </mxGeometry>
        </mxCell>
        <mxCell id="EtRuiWauQV13i_2vU5DI-101" value="Nghị định 168/2024" style="rounded=1;whiteSpace=wrap;html=1;fillColor=#d0cee2;strokeColor=#56517e;" vertex="1" parent="1">
          <mxGeometry x="-970" y="528" width="120" height="60" as="geometry" />
        </mxCell>
        <mxCell id="itmrIUGYTnlYiGPizFp7-10" style="edgeStyle=orthogonalEdgeStyle;rounded=0;orthogonalLoop=1;jettySize=auto;html=1;entryX=0;entryY=0.5;entryDx=0;entryDy=0;" edge="1" parent="1" source="EtRuiWauQV13i_2vU5DI-103" target="EtRuiWauQV13i_2vU5DI-114">
          <mxGeometry relative="1" as="geometry" />
        </mxCell>
        <mxCell id="EtRuiWauQV13i_2vU5DI-103" value="Phân đoạn 1" style="rounded=1;whiteSpace=wrap;html=1;fillColor=#f8cecc;strokeColor=#b85450;" vertex="1" parent="1">
          <mxGeometry x="-710" y="393" width="120" height="60" as="geometry" />
        </mxCell>
        <mxCell id="itmrIUGYTnlYiGPizFp7-11" style="edgeStyle=orthogonalEdgeStyle;rounded=0;orthogonalLoop=1;jettySize=auto;html=1;entryX=0;entryY=0.5;entryDx=0;entryDy=0;" edge="1" parent="1" source="EtRuiWauQV13i_2vU5DI-106" target="itmrIUGYTnlYiGPizFp7-8">
          <mxGeometry relative="1" as="geometry" />
        </mxCell>
        <mxCell id="EtRuiWauQV13i_2vU5DI-106" value="Phân đoạn 2" style="rounded=1;whiteSpace=wrap;html=1;fillColor=#f8cecc;strokeColor=#b85450;" vertex="1" parent="1">
          <mxGeometry x="-710" y="478" width="120" height="60" as="geometry" />
        </mxCell>
        <mxCell id="itmrIUGYTnlYiGPizFp7-12" style="edgeStyle=orthogonalEdgeStyle;rounded=0;orthogonalLoop=1;jettySize=auto;html=1;entryX=0;entryY=0.5;entryDx=0;entryDy=0;" edge="1" parent="1" source="EtRuiWauQV13i_2vU5DI-107" target="itmrIUGYTnlYiGPizFp7-8">
          <mxGeometry relative="1" as="geometry" />
        </mxCell>
        <mxCell id="EtRuiWauQV13i_2vU5DI-107" value="Phân đoạn N" style="rounded=1;whiteSpace=wrap;html=1;fillColor=#f8cecc;strokeColor=#b85450;" vertex="1" parent="1">
          <mxGeometry x="-710" y="563" width="120" height="60" as="geometry" />
        </mxCell>
        <mxCell id="itmrIUGYTnlYiGPizFp7-13" style="edgeStyle=orthogonalEdgeStyle;rounded=0;orthogonalLoop=1;jettySize=auto;html=1;entryX=0;entryY=0.5;entryDx=0;entryDy=0;" edge="1" parent="1" source="EtRuiWauQV13i_2vU5DI-112" target="EtRuiWauQV13i_2vU5DI-114">
          <mxGeometry relative="1" as="geometry" />
        </mxCell>
        <mxCell id="itmrIUGYTnlYiGPizFp7-14" style="edgeStyle=orthogonalEdgeStyle;rounded=0;orthogonalLoop=1;jettySize=auto;html=1;entryX=0;entryY=0.5;entryDx=0;entryDy=0;" edge="1" parent="1" source="EtRuiWauQV13i_2vU5DI-112" target="itmrIUGYTnlYiGPizFp7-9">
          <mxGeometry relative="1" as="geometry" />
        </mxCell>
        <mxCell id="EtRuiWauQV13i_2vU5DI-112" value="Metadata" style="rounded=1;whiteSpace=wrap;html=1;fillColor=#f8cecc;strokeColor=#b85450;" vertex="1" parent="1">
          <mxGeometry x="-710" y="648" width="120" height="60" as="geometry" />
        </mxCell>
        <mxCell id="itmrIUGYTnlYiGPizFp7-37" style="edgeStyle=orthogonalEdgeStyle;rounded=0;orthogonalLoop=1;jettySize=auto;html=1;entryX=0;entryY=0.5;entryDx=0;entryDy=0;" edge="1" parent="1" source="EtRuiWauQV13i_2vU5DI-114" target="itmrIUGYTnlYiGPizFp7-36">
          <mxGeometry relative="1" as="geometry" />
        </mxCell>
        <mxCell id="EtRuiWauQV13i_2vU5DI-114" value="Ngữ cảnh 1 + Phân đoạn 1" style="rounded=1;whiteSpace=wrap;html=1;fillColor=#fff2cc;strokeColor=#d6b656;" vertex="1" parent="1">
          <mxGeometry x="-400" y="448" width="150" height="60" as="geometry" />
        </mxCell>
        <mxCell id="itmrIUGYTnlYiGPizFp7-2" style="edgeStyle=orthogonalEdgeStyle;rounded=0;orthogonalLoop=1;jettySize=auto;html=1;entryX=0.167;entryY=0.984;entryDx=0;entryDy=0;entryPerimeter=0;" edge="1" parent="1" source="EtRuiWauQV13i_2vU5DI-39" target="EtRuiWauQV13i_2vU5DI-43">
          <mxGeometry relative="1" as="geometry">
            <Array as="points">
              <mxPoint x="67" y="387" />
            </Array>
          </mxGeometry>
        </mxCell>
        <mxCell id="itmrIUGYTnlYiGPizFp7-3" style="edgeStyle=orthogonalEdgeStyle;rounded=0;orthogonalLoop=1;jettySize=auto;html=1;entryX=0.167;entryY=0.984;entryDx=0;entryDy=0;entryPerimeter=0;" edge="1" parent="1" source="EtRuiWauQV13i_2vU5DI-35" target="EtRuiWauQV13i_2vU5DI-43">
          <mxGeometry relative="1" as="geometry">
            <Array as="points">
              <mxPoint x="260" y="390" />
              <mxPoint x="260" y="270" />
              <mxPoint x="67" y="270" />
            </Array>
          </mxGeometry>
        </mxCell>
        <mxCell id="itmrIUGYTnlYiGPizFp7-40" style="edgeStyle=orthogonalEdgeStyle;rounded=0;orthogonalLoop=1;jettySize=auto;html=1;entryX=0;entryY=0.5;entryDx=0;entryDy=0;" edge="1" parent="1" source="itmrIUGYTnlYiGPizFp7-8" target="itmrIUGYTnlYiGPizFp7-36">
          <mxGeometry relative="1" as="geometry" />
        </mxCell>
        <mxCell id="itmrIUGYTnlYiGPizFp7-42" style="edgeStyle=orthogonalEdgeStyle;rounded=0;orthogonalLoop=1;jettySize=auto;html=1;entryX=0;entryY=0.5;entryDx=0;entryDy=0;" edge="1" parent="1" source="itmrIUGYTnlYiGPizFp7-8" target="itmrIUGYTnlYiGPizFp7-35">
          <mxGeometry relative="1" as="geometry" />
        </mxCell>
        <mxCell id="itmrIUGYTnlYiGPizFp7-8" value="Ngữ cảnh 2 + Phân đoạn 2" style="rounded=1;whiteSpace=wrap;html=1;fillColor=#fff2cc;strokeColor=#d6b656;" vertex="1" parent="1">
          <mxGeometry x="-400" y="528" width="150" height="60" as="geometry" />
        </mxCell>
        <mxCell id="itmrIUGYTnlYiGPizFp7-39" style="edgeStyle=orthogonalEdgeStyle;rounded=0;orthogonalLoop=1;jettySize=auto;html=1;entryX=0;entryY=0.5;entryDx=0;entryDy=0;" edge="1" parent="1" source="itmrIUGYTnlYiGPizFp7-9" target="itmrIUGYTnlYiGPizFp7-36">
          <mxGeometry relative="1" as="geometry" />
        </mxCell>
        <mxCell id="itmrIUGYTnlYiGPizFp7-41" style="edgeStyle=orthogonalEdgeStyle;rounded=0;orthogonalLoop=1;jettySize=auto;html=1;entryX=0;entryY=0.5;entryDx=0;entryDy=0;" edge="1" parent="1" source="itmrIUGYTnlYiGPizFp7-9" target="itmrIUGYTnlYiGPizFp7-35">
          <mxGeometry relative="1" as="geometry" />
        </mxCell>
        <mxCell id="itmrIUGYTnlYiGPizFp7-9" value="Ngữ cảnh X + Phân đoạn N" style="rounded=1;whiteSpace=wrap;html=1;fillColor=#fff2cc;strokeColor=#d6b656;" vertex="1" parent="1">
          <mxGeometry x="-400" y="608" width="150" height="60" as="geometry" />
        </mxCell>
        <mxCell id="itmrIUGYTnlYiGPizFp7-19" value="Rule-based&amp;nbsp;&lt;div&gt;chunking&lt;/div&gt;" style="text;html=1;align=center;verticalAlign=middle;resizable=0;points=[];autosize=1;strokeColor=none;fillColor=none;" vertex="1" parent="1">
          <mxGeometry x="-790" y="468" width="90" height="40" as="geometry" />
        </mxCell>
        <mxCell id="itmrIUGYTnlYiGPizFp7-22" value="Metadata&amp;nbsp;&lt;div&gt;extractor&lt;/div&gt;" style="text;html=1;align=center;verticalAlign=middle;resizable=0;points=[];autosize=1;strokeColor=none;fillColor=none;" vertex="1" parent="1">
          <mxGeometry x="-790" y="633" width="80" height="40" as="geometry" />
        </mxCell>
        <mxCell id="itmrIUGYTnlYiGPizFp7-44" style="edgeStyle=orthogonalEdgeStyle;rounded=0;orthogonalLoop=1;jettySize=auto;html=1;" edge="1" parent="1" source="itmrIUGYTnlYiGPizFp7-35">
          <mxGeometry relative="1" as="geometry">
            <mxPoint x="20" y="620" as="targetPoint" />
          </mxGeometry>
        </mxCell>
        <mxCell id="itmrIUGYTnlYiGPizFp7-35" value="TF-IDF Encoding" style="rounded=1;whiteSpace=wrap;html=1;fillColor=#d5e8d4;strokeColor=#82b366;" vertex="1" parent="1">
          <mxGeometry x="-180" y="588" width="120" height="60" as="geometry" />
        </mxCell>
        <mxCell id="itmrIUGYTnlYiGPizFp7-43" style="edgeStyle=orthogonalEdgeStyle;rounded=0;orthogonalLoop=1;jettySize=auto;html=1;entryX=0;entryY=0.5;entryDx=0;entryDy=0;" edge="1" parent="1" source="itmrIUGYTnlYiGPizFp7-36" target="EtRuiWauQV13i_2vU5DI-45">
          <mxGeometry relative="1" as="geometry" />
        </mxCell>
        <mxCell id="itmrIUGYTnlYiGPizFp7-36" value="Embedding&amp;nbsp;&lt;br&gt;(text-embedding-large-v3)" style="rounded=1;whiteSpace=wrap;html=1;fillColor=#d5e8d4;strokeColor=#82b366;" vertex="1" parent="1">
          <mxGeometry x="-180" y="490" width="120" height="60" as="geometry" />
        </mxCell>
        <mxCell id="itmrIUGYTnlYiGPizFp7-47" value="📌Updated" style="text;html=1;align=center;verticalAlign=middle;resizable=0;points=[];autosize=1;strokeColor=none;fillColor=none;fontStyle=2" vertex="1" parent="1">
          <mxGeometry x="410" y="600" width="90" height="30" as="geometry" />
        </mxCell>
        <mxCell id="itmrIUGYTnlYiGPizFp7-48" value="📌New" style="text;html=1;align=center;verticalAlign=middle;resizable=0;points=[];autosize=1;strokeColor=none;fillColor=none;fontStyle=2" vertex="1" parent="1">
          <mxGeometry x="590" y="598" width="60" height="30" as="geometry" />
        </mxCell>
        <mxCell id="itmrIUGYTnlYiGPizFp7-49" value="&lt;span style=&quot;color: rgba(0, 0, 0, 0); font-family: monospace; font-size: 0px; text-align: start;&quot;&gt;%3CmxGraphModel%3E%3Croot%3E%3CmxCell%20id%3D%220%22%2F%3E%3CmxCell%20id%3D%221%22%20parent%3D%220%22%2F%3E%3CmxCell%20id%3D%222%22%20value%3D%22%F0%9F%93%8CNew%22%20style%3D%22text%3Bhtml%3D1%3Balign%3Dcenter%3BverticalAlign%3Dmiddle%3Bresizable%3D0%3Bpoints%3D%5B%5D%3Bautosize%3D1%3BstrokeColor%3Dnone%3BfillColor%3Dnone%3B%22%20vertex%3D%221%22%20parent%3D%221%22%3E%3CmxGeometry%20x%3D%22590%22%20y%3D%22598%22%20width%3D%2260%22%20height%3D%2230%22%20as%3D%22geometry%22%2F%3E%3C%2FmxCell%3E%3C%2Froot%3E%3C%2FmxGraphModel%3E&lt;/span&gt;&lt;span style=&quot;color: rgba(0, 0, 0, 0); font-family: monospace; font-size: 0px; text-align: start;&quot;&gt;%3CmxGraphModel%3E%3Croot%3E%3CmxCell%20id%3D%220%22%2F%3E%3CmxCell%20id%3D%221%22%20parent%3D%220%22%2F%3E%3CmxCell%20id%3D%222%22%20value%3D%22%F0%9F%93%8CNew%22%20style%3D%22text%3Bhtml%3D1%3Balign%3Dcenter%3BverticalAlign%3Dmiddle%3Bresizable%3D0%3Bpoints%3D%5B%5D%3Bautosize%3D1%3BstrokeColor%3Dnone%3BfillColor%3Dnone%3B%22%20vertex%3D%221%22%20parent%3D%221%22%3E%3CmxGeometry%20x%3D%22590%22%20y%3D%22598%22%20width%3D%2260%22%20height%3D%2230%22%20as%3D%22geometry%22%2F%3E%3C%2FmxCell%3E%3C%2Froot%3E%3C%2FmxGraphModel%3E&lt;/span&gt;" style="text;html=1;align=center;verticalAlign=middle;resizable=0;points=[];autosize=1;strokeColor=none;fillColor=none;" vertex="1" parent="1">
          <mxGeometry x="150" y="428" width="20" height="30" as="geometry" />
        </mxCell>
        <mxCell id="itmrIUGYTnlYiGPizFp7-50" value="📌New" style="text;html=1;align=center;verticalAlign=middle;resizable=0;points=[];autosize=1;strokeColor=none;fillColor=none;fontStyle=2" vertex="1" parent="1">
          <mxGeometry x="90" y="325" width="60" height="30" as="geometry" />
        </mxCell>
        <mxCell id="itmrIUGYTnlYiGPizFp7-51" value="📌Updated" style="text;html=1;align=center;verticalAlign=middle;resizable=0;points=[];autosize=1;strokeColor=none;fillColor=none;fontStyle=2" vertex="1" parent="1">
          <mxGeometry x="-480" y="528" width="90" height="30" as="geometry" />
        </mxCell>
        <mxCell id="itmrIUGYTnlYiGPizFp7-52" value="📌Updated" style="text;html=1;align=center;verticalAlign=middle;resizable=0;points=[];autosize=1;strokeColor=none;fillColor=none;fontStyle=2" vertex="1" parent="1">
          <mxGeometry x="-190" y="458" width="90" height="30" as="geometry" />
        </mxCell>
      </root>
    </mxGraphModel>
  </diagram>
</mxfile>
